<?xml version="1.0" standalone="no"?>
<!DOCTYPE svg PUBLIC "-//W3C//DTD SVG 20010904//EN"
 "http://www.w3.org/TR/2001/REC-SVG-20010904/DTD/svg10.dtd">
<svg version="1.0" xmlns="http://www.w3.org/2000/svg"
 width="500.000000pt" height="500.000000pt" viewBox="0 0 500.000000 500.000000"
 preserveAspectRatio="xMidYMid meet">

<g transform="translate(0.000000,500.000000) scale(0.100000,-0.100000)"
fill="#000000" stroke="none">
<path d="M2465 4321 c-16 -10 -270 -153 -562 -317 -293 -164 -533 -301 -533
-305 0 -4 254 -152 565 -329 l565 -323 243 136 c133 74 346 194 472 265 127
71 274 153 327 183 54 30 97 57 98 60 0 8 -181 112 -195 112 -5 0 -221 -119
-480 -264 -258 -145 -473 -263 -478 -261 -14 4 -711 402 -719 410 -7 7 116 78
710 410 122 68 222 127 222 131 0 7 -184 111 -197 111 -4 0 -21 -9 -38 -19z"/>
<path d="M2458 3932 c-213 -119 -387 -220 -388 -223 0 -3 99 -62 221 -132
l221 -126 381 215 c210 118 386 219 390 223 5 5 -30 30 -77 56 l-87 47 -295
-166 c-162 -92 -299 -167 -303 -169 -4 -1 -31 11 -61 27 l-54 29 23 16 c13 9
98 58 190 110 91 51 214 120 274 154 59 33 107 63 107 66 0 3 -35 25 -78 48
l-78 41 -386 -216z"/>
<path d="M1270 2903 l0 -648 33 -19 c17 -10 194 -109 392 -221 198 -111 441
-248 540 -304 l180 -102 3 112 c1 62 -1 116 -5 119 -4 4 -210 121 -458 260
-247 139 -458 258 -467 264 -17 10 -18 41 -18 423 0 227 3 413 6 413 3 0 119
-64 257 -142 139 -78 340 -191 447 -251 107 -60 199 -113 205 -118 5 -5 15 -9
22 -9 11 0 13 24 11 112 l-3 112 -555 313 c-305 173 -563 318 -572 324 -17 9
-18 -24 -18 -638z"/>
<path d="M3595 3472 c-203 -115 -641 -361 -824 -463 -95 -54 -178 -102 -182
-106 -5 -5 -8 -296 -7 -651 l3 -642 210 118 c116 65 373 210 573 322 l362 203
0 113 c0 63 -1 114 -3 114 -2 0 -140 -77 -308 -171 -428 -241 -621 -349 -625
-349 -2 0 -3 187 -2 416 l3 415 250 141 c138 78 347 196 465 263 l215 121 3
112 c1 62 -1 112 -5 112 -4 -1 -62 -31 -128 -68z"/>
<path d="M3330 2930 l-385 -217 -3 -258 -2 -257 32 20 c18 11 164 93 323 182
160 89 323 181 363 203 l72 41 0 99 0 99 -42 -25 c-24 -13 -137 -77 -253 -142
-115 -64 -234 -131 -263 -147 l-53 -30 3 62 3 62 90 52 c50 28 186 105 303
170 l212 118 0 94 c0 52 -3 94 -7 93 -5 -1 -181 -99 -393 -219z"/>
<path d="M1612 2704 l3 -255 399 -225 c219 -123 401 -224 403 -224 1 0 3 44 3
98 l0 97 -257 145 c-141 80 -281 158 -310 175 l-53 30 0 68 c0 67 0 68 23 56
12 -7 90 -50 172 -97 336 -189 413 -232 419 -232 3 0 6 40 6 88 l0 88 -394
222 c-217 122 -400 222 -405 222 -8 0 -11 -77 -9 -256z"/>
<path d="M663 1055 l-34 -34 3 -155 c4 -210 -7 -199 218 -206 l170 -5 0 38 0
37 -148 0 c-102 0 -152 4 -160 12 -17 17 -17 249 0 266 8 8 58 12 160 12 l148
0 0 35 0 35 -161 0 -161 0 -35 -35z"/>
<path d="M1242 1078 c-9 -9 -12 -71 -12 -218 l0 -205 33 0 32 0 5 180 5 180
140 0 140 0 3 -46 c2 -34 -2 -52 -17 -70 -18 -22 -27 -24 -125 -27 l-106 -4 0
-34 c0 -30 3 -34 28 -34 19 0 50 -20 107 -69 77 -65 84 -69 138 -72 31 -2 57
-2 56 1 0 3 -34 34 -76 69 l-75 64 50 19 c70 26 92 63 92 152 0 61 -3 70 -29
97 l-29 29 -174 0 c-122 0 -178 -4 -186 -12z"/>
<path d="M1870 875 l0 -215 40 0 40 0 0 215 0 215 -40 0 -40 0 0 -215z"/>
<path d="M2219 1067 c-18 -12 -36 -33 -40 -47 -4 -14 -7 -100 -8 -192 l-1
-168 40 0 40 0 0 174 c0 149 2 175 16 180 9 3 60 6 115 6 93 0 102 -2 124 -25
19 -18 25 -35 25 -68 0 -73 -12 -81 -137 -87 l-108 -5 0 -35 0 -35 87 -3 c112
-4 158 9 197 53 29 33 31 41 31 108 0 136 -42 167 -228 167 -107 0 -122 -2
-153 -23z"/>
<path d="M2770 1055 l0 -34 88 -3 87 -3 3 -180 2 -181 35 4 35 4 2 177 3 176
88 3 87 3 0 34 0 35 -215 0 -215 0 0 -35z"/>
<path d="M3397 1083 c-4 -3 -7 -87 -7 -185 l0 -180 29 -29 29 -29 166 0 166 0
0 35 0 34 -157 3 -158 3 -3 143 -3 142 161 0 160 0 0 35 0 35 -188 0 c-104 0
-192 -3 -195 -7z"/>
<path d="M4013 1055 l-34 -34 3 -155 c4 -210 -7 -199 218 -206 l170 -5 0 38 0
37 -148 0 c-102 0 -152 4 -160 12 -17 17 -17 249 0 266 8 8 58 12 160 12 l148
0 0 35 0 35 -161 0 -161 0 -35 -35z"/>
<path d="M3500 875 l0 -35 120 0 120 0 0 35 0 35 -120 0 -120 0 0 -35z"/>
</g>
</svg>
